HIERARCHY
ROOT Hips
{
  OFFSET 0.000000 0.000000 0.000000
  CHANNELS 6 Xposition Yposition Zposition Xrotation Yrotation Zrotation
  JOINT Spine
  {
    OFFSET 0.000000 5.000000 0.000000
    CHANNELS 3 Xrotation Yrotation Zrotation
    JOINT Chest
    {
      OFFSET 0.000000 5.000000 0.000000
      CHANNELS 3 Xrotation Yrotation Zrotation
      JOINT Neck
      {
        OFFSET 0.000000 5.000000 0.000000
        CHANNELS 3 Xrotation Yrotation Zrotation
        JOINT Head
        {
          OFFSET 0.000000 5.000000 0.000000
          CHANNELS 3 Xrotation Yrotation Zrotation
          End Site
          {
            OFFSET 0.0 5.0 2.0
          }
        }
      }
      JOINT LeftShoulder
      {
        OFFSET -5.000000 0.000000 0.000000
        CHANNELS 3 Xrotation Yrotation Zrotation
        JOINT LeftArm
        {
          OFFSET -5.000000 0.000000 0.000000
          CHANNELS 3 Xrotation Yrotation Zrotation
          JOINT LeftForeArm
          {
            OFFSET -5.000000 0.000000 0.000000
            CHANNELS 3 Xrotation Yrotation Zrotation
            JOINT LeftHand
            {
              OFFSET -8.000000 0.000000 3.000000
              CHANNELS 3 Xrotation Yrotation Zrotation
              End Site
              {
                OFFSET -3.0 0.0 2.0
              }
            }
          }
        }
      }
      JOINT RightShoulder
      {
        OFFSET 5.000000 0.000000 0.000000
        CHANNELS 3 Xrotation Yrotation Zrotation
        JOINT RightArm
        {
          OFFSET 5.000000 0.000000 0.000000
          CHANNELS 3 Xrotation Yrotation Zrotation
          JOINT RightForeArm
          {
            OFFSET 5.000000 0.000000 0.000000
            CHANNELS 3 Xrotation Yrotation Zrotation
            JOINT RightHand
            {
              OFFSET 8.000000 0.000000 3.000000
              CHANNELS 3 Xrotation Yrotation Zrotation
              End Site
              {
                OFFSET 3.0 0.0 2.0
              }
            }
          }
        }
      }
    }
  }
  JOINT LeftUpLeg
  {
    OFFSET -3.535534 -3.535534 0.000000
    CHANNELS 3 Xrotation Yrotation Zrotation
    JOINT LeftLeg
    {
      OFFSET 0.000000 -5.000000 0.000000
      CHANNELS 3 Xrotation Yrotation Zrotation
      JOINT LeftFoot
      {
        OFFSET 0.000000 -8.000000 5.000000
        CHANNELS 3 Xrotation Yrotation Zrotation
        JOINT LeftToeBase
        {
          OFFSET 0.000000 -1.000000 8.000000
          CHANNELS 3 Xrotation Yrotation Zrotation
          End Site
          {
            OFFSET 0.0 -1.0 3.0
          }
        }
      }
    }
  }
  JOINT RightUpLeg
  {
    OFFSET 3.535534 -3.535534 0.000000
    CHANNELS 3 Xrotation Yrotation Zrotation
    JOINT RightLeg
    {
      OFFSET 0.000000 -5.000000 0.000000
      CHANNELS 3 Xrotation Yrotation Zrotation
      JOINT RightFoot
      {
        OFFSET 0.000000 -8.000000 5.000000
        CHANNELS 3 Xrotation Yrotation Zrotation
        JOINT RightToeBase
        {
          OFFSET 0.000000 -1.000000 8.000000
          CHANNELS 3 Xrotation Yrotation Zrotation
          End Site
          {
            OFFSET 0.0 -1.0 3.0
          }
        }
      }
    }
  }
}
MOTION
Frames: 15
Frame Time: 0.033333
0.000000 0.000000 0.000000 0.000000 0.000000 0.000000 0.000000 0.000000 0.000000 0.000000 0.000000 0.000000 0.000000 0.000000 0.000000 0.000000 0.000000 0.000000 0.000000 0.000000 0.000000 0.000000 0.000000 0.000000 0.000000 0.000000 0.000000 0.000000 0.000000 0.000000 0.000000 0.000000 0.000000 0.000000 0.000000 0.000000 0.000000 0.000000 0.000000 0.000000 0.000000 0.000000 0.000000 0.000000 0.000000 0.000000 0.000000 0.000000 0.000000 0.000000 0.000000 0.000000 0.000000 0.000000 0.000000 0.000000 0.000000 0.000000 0.000000 0.000000 0.000000 0.000000 0.000000 0.000000 0.000000 0.000000
0.198669 0.199667 1.000000 0.000000 0.000000 0.000000 0.000000 0.000000 0.000000 0.000000 0.000000 0.000000 0.000000 0.000000 0.000000 0.000000 0.000000 0.000000 0.000000 0.000000 0.000000 0.000000 0.000000 0.000000 0.000000 0.000000 0.000000 0.000000 0.000000 0.000000 0.000000 0.000000 0.000000 0.000000 0.000000 0.000000 0.000000 0.000000 0.000000 0.000000 0.000000 0.000000 0.000000 0.000000 0.000000 0.000000 0.000000 0.000000 0.000000 0.000000 0.000000 0.000000 0.000000 0.000000 0.000000 0.000000 0.000000 0.000000 0.000000 0.000000 0.000000 0.000000 0.000000 0.000000 0.000000 0.000000
0.389418 0.397339 2.000000 0.000000 0.000000 0.000000 0.000000 0.000000 0.000000 0.000000 0.000000 0.000000 0.000000 0.000000 0.000000 0.000000 0.000000 0.000000 0.000000 0.000000 0.000000 0.000000 0.000000 0.000000 0.000000 0.000000 0.000000 0.000000 0.000000 0.000000 0.000000 0.000000 0.000000 0.000000 0.000000 0.000000 0.000000 0.000000 0.000000 0.000000 0.000000 0.000000 0.000000 0.000000 0.000000 0.000000 0.000000 0.000000 0.000000 0.000000 0.000000 0.000000 0.000000 0.000000 0.000000 0.000000 0.000000 0.000000 0.000000 0.000000 0.000000 0.000000 0.000000 0.000000 0.000000 0.000000
0.564642 0.591040 3.000000 0.000000 0.000000 0.000000 0.000000 0.000000 0.000000 0.000000 0.000000 0.000000 0.000000 0.000000 0.000000 0.000000 0.000000 0.000000 0.000000 0.000000 0.000000 0.000000 0.000000 0.000000 0.000000 0.000000 0.000000 0.000000 0.000000 0.000000 0.000000 0.000000 0.000000 0.000000 0.000000 0.000000 0.000000 0.000000 0.000000 0.000000 0.000000 0.000000 0.000000 0.000000 0.000000 0.000000 0.000000 0.000000 0.000000 0.000000 0.000000 0.000000 0.000000 0.000000 0.000000 0.000000 0.000000 0.000000 0.000000 0.000000 0.000000 0.000000 0.000000 0.000000 0.000000 0.000000
0.717356 0.778837 4.000000 7.615938 -19.880113 -131.593709 -168.950144 -27.917605 -2.754615 156.142263 -9.636124 -177.959683 -86.452175 2.618324 2.785625 0.000000 0.000000 0.000000 70.563857 -9.344567 -166.822408 130.884868 -33.919761 -164.133743 84.456967 -41.453059 -179.500099 0.000000 0.000000 0.000000 -129.052526 -17.772155 171.480302 108.202236 11.821600 171.428476 28.874291 42.821164 171.089985 0.000000 0.000000 0.000000 -169.334277 -27.009423 -2.568534 -116.939333 13.231236 -0.110195 -51.860879 20.935775 -7.200237 0.000000 0.000000 0.000000 -165.236783 -35.415619 -4.737314 -120.609076 0.633855 -0.025568 -52.506041 -30.000000 12.698275 0.000000 0.000000 0.000000
0.841471 0.958851 5.000000 7.247038 -18.927697 -131.603400 -168.874194 -24.672440 -2.440492 156.117048 -7.091990 -178.498289 -86.668209 -2.983870 -3.162544 0.000000 0.000000 0.000000 60.629423 -7.859481 -166.598355 130.066607 -33.258735 -164.166287 84.744992 -41.671838 -179.182115 0.000000 0.000000 0.000000 -91.911736 -9.944714 170.380130 123.497473 16.435582 171.125101 65.290997 39.919497 -177.551743 0.000000 0.000000 0.000000 -168.231119 -30.397329 -3.207691 -117.665117 12.544129 -0.184205 -52.297414 21.628342 -7.536188 0.000000 0.000000 0.000000 -164.023154 -40.138654 -5.869977 -120.697850 -0.779716 0.032057 -52.460928 -30.000000 12.728026 0.000000 0.000000 0.000000
0.932039 1.129285 6.000000 6.495189 -16.974176 -131.639186 -169.076632 -23.243171 -2.253073 155.433251 -4.819271 -178.950104 -86.159941 -9.046608 -9.671313 0.000000 0.000000 0.000000 61.091907 -7.914286 -166.628474 131.908567 -33.408182 -164.747292 81.726190 -42.657654 -177.600691 0.000000 0.000000 0.000000 -47.081227 -4.770808 169.076008 130.323794 20.095790 170.622663 84.137997 38.082813 -175.646942 0.000000 0.000000 0.000000 -167.644221 -34.002371 -3.791145 -117.786666 11.550351 -0.181804 -53.043003 21.875688 -7.785086 0.000000 0.000000 0.000000 -163.221639 -42.314711 -6.533252 -120.783936 -1.612613 0.067518 -52.912923 -30.000000 12.914127 0.000000 0.000000 0.000000
0.985450 1.288435 7.000000 5.296594 -13.850632 -131.695196 -169.390591 -21.932184 -2.061417 134.759621 -1.787046 -179.255336 -83.342739 -14.634594 -16.418734 0.000000 0.000000 0.000000 46.719214 -5.741682 -166.754224 133.604548 -32.080720 -165.951690 73.880038 -43.501737 -175.705001 0.000000 0.000000 0.000000 -11.476842 -1.322523 166.896167 137.101871 22.796434 170.942505 97.773200 36.334315 -174.660620 0.000000 0.000000 0.000000 -167.037788 -38.721601 -4.571849 -117.974540 10.660765 -0.185252 -53.995337 22.866242 -8.361726 0.000000 0.000000 0.000000 -162.866587 -43.621991 -6.899895 -121.154452 -2.146530 0.096832 -53.541091 -30.000000 13.195348 0.000000 0.000000 0.000000
0.999574 1.434712 8.000000 4.545225 -11.889243 -131.726126 -169.536597 -21.001840 -1.944672 85.882551 -0.486496 -179.477224 -82.519431 -15.750928 -17.920741 0.000000 0.000000 0.000000 39.451966 -4.715290 -166.899446 133.920702 -31.333687 -166.395952 70.849156 -43.786294 -174.908713 0.000000 0.000000 0.000000 -10.218398 -1.258277 165.996371 137.512169 23.041692 170.938618 99.204970 36.228561 -174.682572 0.000000 0.000000 0.000000 -166.711411 -40.609619 -4.935971 -118.040280 10.092185 -0.181125 -54.632433 23.553673 -8.768883 0.000000 0.000000 0.000000 -162.630109 -44.109529 -7.082577 -121.124105 -2.495436 0.111914 -53.599635 -30.000000 13.356346 0.000000 0.000000 0.000000
0.973848 1.566654 9.000000 3.792207 -9.920347 -131.758644 -169.380471 -19.624973 -1.841812 -148.073643 1.181904 -179.661905 -80.319833 -17.969429 -21.224344 0.000000 0.000000 0.000000 28.725448 -3.321110 -167.081480 133.484520 -29.987186 -166.867005 66.196479 -44.028668 -173.930785 0.000000 0.000000 0.000000 3.732417 0.493124 164.952606 140.271628 24.063237 171.193534 105.648048 35.655105 -174.726192 0.000000 0.000000 0.000000 -166.374426 -40.484919 -5.045255 -118.216488 9.890578 -0.192741 -55.458460 24.231339 -9.228251 0.000000 0.000000 0.000000 -162.478672 -43.793614 -7.088738 -120.995280 -2.719526 0.118903 -53.742687 -30.000000 13.467169 0.000000 0.000000 0.000000
0.909297 1.682942 10.000000 3.218531 -8.421546 -131.772730 -169.176643 -18.276385 -1.746082 -175.073953 2.365982 -179.898214 -78.847172 -19.421114 -23.516829 0.000000 0.000000 0.000000 21.354546 -2.376477 -167.444130 133.951397 -28.584364 -167.642091 61.757866 -44.097209 -173.226537 0.000000 0.000000 0.000000 7.879395 1.092517 164.236084 139.994321 23.752181 171.244664 106.229036 35.476844 -174.617964 0.000000 0.000000 0.000000 -166.133772 -41.065178 -5.215255 -118.227383 10.038245 -0.196590 -56.017132 24.518928 -9.478551 0.000000 0.000000 0.000000 -162.129419 -43.778451 -7.229197 -120.704439 -2.715037 0.111802 -54.525375 -30.000000 13.875314 0.000000 0.000000 0.000000
0.808496 1.782415 11.000000 2.948793 -7.716105 -131.780444 -169.125647 -18.230504 -1.749879 -179.541084 2.292249 -179.990819 -78.772102 -19.189228 -23.268728 0.000000 0.000000 0.000000 28.315937 -3.047613 -167.960338 137.223211 -29.443548 -168.248781 67.180471 -43.700504 -174.725987 0.000000 0.000000 0.000000 -4.242686 -0.583340 164.349559 138.429587 22.986035 171.173777 102.041795 35.916080 -174.632287 0.000000 0.000000 0.000000 -166.032931 -41.655282 -5.335913 -117.615141 10.122242 -0.144006 -56.853757 24.616682 -9.725575 0.000000 0.000000 0.000000 -161.779502 -43.263290 -7.277365 -119.615449 -2.602396 0.082394 -55.940705 -30.000000 14.501333 0.000000 0.000000 0.000000
0.675463 1.864078 12.000000 2.812705 -7.360453 -131.782560 -169.117702 -18.614313 -1.788676 172.815739 2.034257 179.872283 -79.064160 -18.547918 -22.384012 0.000000 0.000000 0.000000 35.131841 -3.635432 -168.550371 138.555604 -30.035691 -168.409276 69.474673 -43.540200 -175.266616 0.000000 0.000000 0.000000 -12.628075 -1.711781 164.621474 136.945448 22.331188 171.095962 98.867364 36.255710 -174.679467 0.000000 0.000000 0.000000 -166.023544 -42.125513 -5.405468 -117.488673 10.245197 -0.134425 -56.906501 24.480923 -9.683621 0.000000 0.000000 0.000000 -161.412682 -43.825271 -7.532220 -119.395123 -2.497576 0.074267 -56.278426 -30.000000 14.576795 0.000000 0.000000 0.000000
0.515501 1.927116 13.000000 2.633673 -6.892326 -131.786014 -169.102316 -18.875314 -1.816788 166.410994 1.912998 179.772054 -79.072291 -18.227293 -21.996993 0.000000 0.000000 0.000000 39.116941 -3.930485 -168.966429 139.141403 -30.411966 -168.437914 71.290391 -43.422763 -175.648224 0.000000 0.000000 0.000000 -17.259004 -2.319175 164.805981 136.000176 21.942130 171.043168 97.412077 36.407994 -174.706583 0.000000 0.000000 0.000000 -166.014863 -42.183039 -5.416940 -117.202108 10.266697 -0.108962 -57.174551 24.608668 -9.802437 0.000000 0.000000 0.000000 -161.129446 -44.098907 -7.701383 -119.147004 -2.433178 0.067078 -56.518677 -30.000000 14.585045 0.000000 0.000000 0.000000
0.334988 1.970899 14.000000 2.638123 -6.904611 -131.782332 -169.132543 -18.921736 -1.816256 163.378970 1.728634 179.747477 -79.527346 -17.702151 -21.199834 0.000000 0.000000 0.000000 40.528958 -4.104367 -168.913246 138.697565 -30.365098 -168.320522 75.076952 -43.111534 -176.493624 0.000000 0.000000 0.000000 -21.614003 -2.903897 164.872577 135.414413 21.660508 171.030623 95.404452 36.669885 -174.812039 0.000000 0.000000 0.000000 -165.997775 -42.328679 -5.444124 -117.141138 10.311693 -0.103940 -57.049012 24.562541 -9.752269 0.000000 0.000000 0.000000 -160.686091 -44.211347 -7.907356 -118.808303 -2.286146 0.056260 -56.566244 -30.000000 14.675164 0.000000 0.000000 0.000000
